<svg width="22" height="24" viewBox="0 0 22 24" fill="#8E9296" xmlns="http://www.w3.org/2000/svg">
<path d="M13.25 1.515C13.19 1.125 12.89 -0.12 11.09 0.015C9.185 0.15 6.605 0.75 2 3.78V0.75C2 0.345 1.655 0 1.25 0C0.83 0 0.5 0.345 0.5 0.75V23.25C0.5 23.67 0.83 24 1.25 24C1.655 24 2 23.67 2 23.25V15.255C2.57 14.865 3.11 14.505 3.62 14.19C4.295 13.755 4.91 13.395 5.48 13.095C6.485 12.54 7.355 12.15 8.12 11.865C8.36 11.775 8.6 11.7 8.825 11.625C9.0635 11.55 9.2885 11.49 9.5 11.445C10.22 11.265 10.85 11.19 11.42 11.145C12.14 11.085 12.77 11.235 13.25 11.55C13.265 11.13 13.25 10.005 13.25 8.985V1.515Z"/>
<path d="M21.1384 11.355L17.3284 9.07499L21.3619 3.43499C21.4969 3.23999 21.5419 2.98499 21.4519 2.75999C21.3919 2.56499 21.2419 2.39999 21.0469 2.30999C20.8519 2.21999 20.6419 2.23499 20.4469 2.30999L14.7469 4.79999V8.96999C14.7469 9.94499 14.7619 11.64 14.7319 11.895C14.6449 12.648 14.3884 13.4655 14.0314 14.292C13.7614 14.916 14.3839 15.549 15.0094 15.2805L21.0454 12.69C21.3004 12.585 21.4804 12.33 21.4954 12.045C21.5134 11.775 21.3784 11.505 21.1384 11.355Z"/>
</svg>
